<svg id="Layer_1" data-name="Layer 1" xmlns="http://www.w3.org/2000/svg" viewBox="0 0 2000 814"><defs><style>.cls-1{fill:#fdc50d;}.cls-2{fill:#fdc40c;}.cls-3{fill:#fdc40d;}.cls-4{fill:#fdc50e;}.cls-5{fill:#fef9ea;}.cls-6{fill:#fef9e9;}.cls-7{fill:#fdc50f;}</style></defs><title>eagle and sun cropped</title><path class="cls-1" d="M800,654c-6.26,4-12.66,7.9-18.73,12.22-2.35,1.67-4.1,2.21-6.72.9A97,97,0,0,0,762.64,662c-3.54-1.21-3.83-3.46-3.36-6.57,2-12.93,11.08-20.11,21.35-26,22.51-12.9,47.44-20.06,71.49-29.26,28.31-10.83,55.88-23,78.23-44,14.54-13.66,28.32-28.22,41.53-43.18,17.66-20,35.49-39.76,55.4-57.6,8.84-7.92,18.6-11.57,30.55-12.59,26.51-2.27,53-5.23,79.31-9.32,60-9.32,117.44-27.89,173.7-50,51.51-20.26,98.78-48.45,143.86-80.53,52.28-37.2,99.07-80.31,141.16-128.62C1640.57,123,1676.77,66.1,1706,4.71A20.74,20.74,0,0,0,1707,1h127c-2,4.49-3.78,9.07-6,13.46-3.57,7.23-7.37,14.35-11.08,21.52-.11.28-.23.55-.35.83L1817,36a20,20,0,0,0,4-2.67c10-10.74,20-21.56,30-32.36h72a24.35,24.35,0,0,1-2,3.88c-15.87,21.14-31.13,42.78-47.86,63.21-16.61,20.28-34.69,39.34-52.13,58.94l-.71.35.48.26c0-.23.09-.46.13-.69,5.79-2.73,12-4.85,17.32-8.27,31.45-20.11,58.12-45.86,84.26-72.21C1937.62,31.25,1952.84,16.15,1968,1h27l6,11v3c-12.78,17.59-24.6,36-38.59,52.56-17.48,20.72-36.28,40.4-55.36,59.7a784.36,784.36,0,0,1-88.16,76.68c-.52.39-1,.86-1.76,1.57,7.71,4.17,15.32,2.56,22.91,1.07,13.22-2.58,24.06-10.26,35.54-16.6s22.87-12.84,34.64-18.58c4.11-2,9.23-2,14.17-2.89,1.55,8.73,0,16.09-2.79,23.28-6.69,17.31-18.31,31.14-32.82,42-18.9,14.15-38.66,27.17-58.31,40.28-20.36,13.59-41,26.7-61.56,40a7.29,7.29,0,0,0-2.84,3.48c4.36,1,8.72,2.66,13.1,2.71,14,.18,28-.28,42-.45a19.12,19.12,0,0,1,5,.33c4.52,1.19,5.33,4.48,2.55,8.28-6,8.14-14.32,13.26-23.41,16.36-24.84,8.49-50,16.18-75,24.15-10.4,3.31-20.84,6.5-31.27,9.74,0,.75.09,1.5.13,2.25,7.6,1,15.18,2.35,22.81,2.87,13.78,1,27.61,1.27,41.39,2.19,3.37.23,6.65,1.75,10,2.68l.27,2.27c-4.61,2.74-9,5.87-13.85,8.17C1742,407.58,1723,411.81,1704,416q-25.83,5.61-51.67,11.25a17.31,17.31,0,0,0-2.49,1.14c10.76,4.28,21.35,5.44,32,6.78s20.87,3.63,31.28,5.58a7.1,7.1,0,0,1,2.58,1.4,10.33,10.33,0,0,1,1.54,1.77c-5.15,5.46-12.12,6.25-18.67,7.18-18.13,2.57-36.4,4.14-54.48,7-14.93,2.33-29.9,5.05-43.66,11.84-3.07,1.51-5.87,3.56-9.27,5.65,16.65,11.93,36.65,14.53,54.05,24.35-1.72,1.15-2.87,2-4.1,2.72-26.46,15.38-51.83,32.68-80.12,44.82-31.82,13.65-64.48,23.6-99.22,26.91a512.33,512.33,0,0,1-74.82,1.88,23.86,23.86,0,0,1-4.76-.64,328,328,0,0,0,84.12-22.4c22.91-9.38,44-22.12,64.48-35.83,11.2-7.5,22-15.66,32.74-23.78,1.25-.94,2.06-3.67,1.73-5.29-1.66-8.13-3.78-16.16-5.71-24.24-.26-1.09-.3-2.24-.52-4,18.59,1.18,36.11-.35,48.85-16.29l-17.32-16.49c8.57-3.53,15.59-6.7,22.81-9.32,10.64-3.86,21.42-7.33,30.51-14.46,5.8-4.54,5.94-6.83.53-11.59-4.19-3.69-5.11-6.91-1.12-10.51a90.16,90.16,0,0,1,17.48-12.09c12.43-6.72,25.23-12.78,37.86-19.13,1.47-.74,2.87-1.62,5.18-2.93L1682.12,339c29-25.86,66.25-39.2,96.85-63.73L1740.86,265c4-3.62,8.4-7.55,12.71-11.6,7.9-7.41,16-14.68,23.53-22.4,8.72-8.88,14.17-19.31,12.94-32.28-.17-1.76-.57-3.49-.87-5.25a87.92,87.92,0,0,0-30.06,6.16c-7,2.76-14.68,3.9-22.54,5.14,22.62-24.23,40-50.7,42.84-84.75-11.63-3.62-22.9-3.08-34.11-1.52-22.66,3.15-43.31,11.91-62.06,24.69-28,19.05-52.28,42.21-75,67.23-12.93,14.24-25.12,29-34.8,45.55-4.74,8.11-7.77,17.22-11.84,25.75-1.14,2.4-2.82,5-5,6.35-10.82,6.53-21.62,13.14-32.89,18.82-39.53,19.91-79.46,39-118.82,59.24-41.72,21.45-79.31,48.35-108,86.27a15.16,15.16,0,0,1-7.62,4.79c-29.37,8.38-59.52,12.32-89.77,16.07-47.69,5.92-95.53,11.31-141.93,24.76a172.43,172.43,0,0,0-46.31,20.68c-6.2,4-11.52,9.56-16.76,14.89-24.61,25.07-53.7,44.14-83.21,62.68-12,7.52-23.29,16.31-35.82,22.73-21.73,11.12-44.17,20.85-66,31,.08,0,.95.45,1.77.94,3.73,2.21,4.8,5.59,3.32,9.42a6.83,6.83,0,0,1-8,4.56c-4.2-.71-6.25-3.48-6.51-7.65-.06-1.13-.07-2.26-.11-3.38l.64-.17c-.09,0-.22-.12-.26-.09A2.74,2.74,0,0,0,800,654Z" transform="translate(-1 -1)"/><path class="cls-1" d="M293,1a762.18,762.18,0,0,0,83.83,139.22c26,34.13,55.14,65.46,86.2,95.06a757.08,757.08,0,0,0,109.86,86.35c34.1,22.19,70.29,40.69,107.42,57.24A751.58,751.58,0,0,0,847.05,431.1c40.33,7.66,81,11.78,121.93,14.08,5.48.31,11,.72,17.32,1.13-10.54,20.84-18.15,42.74-31,61.53-9.32-6.24-17.49-12.63-26.48-17.53-20.18-11-42.47-15.87-65-18.07-30.63-3-61.48-3.79-92.18-6.26-23.55-1.9-47.19-4.43-69.36-13.28-9-3.6-17.39-9-25.64-14.29-17-10.8-30.86-25.32-45.42-39-17-16-34-31.94-51.3-47.6-12.61-11.42-26.88-19.5-43.89-23.45C495,318.81,460,298.09,429.7,269c-26.17-25.2-47.88-54.12-69.63-83-24-31.89-49.79-62.2-79.68-88.72-11.06-9.81-23.26-18.34-35.14-27.19-1.15-.85-4.43-.57-5.44.46a29.39,29.39,0,0,0-5.42,8.2c-1.53,3.28-2.4,6.88-3.83,11.14-13.72-6.78-27.39-14.11-42.09-5.3,8.79,14.21,18,28,26.09,42.42s14.65,29.46,15.71,46.87h-45c17.9,28.23,40.73,50.16,66,70.56l-41.75,4.15c2.79,2.56,4.4,4.39,6.35,5.76,14.17,9.93,28.29,19.94,42.66,29.57,10.13,6.78,21.9,9.47,33.61,12.11,7.62,1.72,8.09,3.18,6,10.75a69.83,69.83,0,0,0-2.25,15.58c-.24,6.42,4.35,9.07,9.81,10.87a118,118,0,0,1,15.78,6.09c4.72,2.34,4.56,3.78.49,7a77.49,77.49,0,0,0-6.82,5.84c-4.67,4.71-6.19,13.49-3.26,19.27a6.19,6.19,0,0,0,3.4,2.42c10.24,3.44,20.58,6.62,30.79,10.15,5.61,1.94,11.05,4.42,17.73,7.13l-28.22,22.33c25.16,20.06,54.41,26.71,85.92,31.33l-42.3,26.18c4.81,3,8.65,5.78,12.82,7.91,56.46,28.79,115.33,51.7,175.57,71.11,22.94,7.39,46.24,13.66,69.37,20.42a14.87,14.87,0,0,1,4.72,1.79c-10.44-1.15-20.88-2.24-31.3-3.48A527.09,527.09,0,0,1,485.7,537.87c-33.12-12.55-65.51-27-98.3-40.41-22.94-9.37-46-18.38-69-27.56a12.32,12.32,0,0,1-5.14-3.42l50.94-16.21c-36-8-72.85-11.09-105.3-30.45,17.71-10.39,38.09-12.06,57-20.8-7.56-1.42-14.41-2.79-21.29-4-19.33-3.39-38.77-6.3-58-10.31-6.79-1.42-13-5.44-19.52-8.34-1.49-.67-2.88-1.58-4.31-2.38l1.12-2.47c5.93-1.16,11.86-2.29,17.77-3.49,14.8-3,29.65-5.86,44.37-9.24,4.2-1,8-3.59,12-5.45l0-1.86c-5.71-1.81-11.31-4.29-17.16-5.3-15.74-2.72-31.62-4.56-47.37-7.21-15.93-2.67-31.75-6.23-46-14.24-8.37-4.7-16-10.62-21.18-20.64,3.92-.33,7.12-1,10.27-.81,25.11,1.23,50.2,2.8,75.31,3.79,5.6.22,11.28-1.49,16.93-2.3l0-1.8c-1.61-.71-3.2-1.46-4.83-2.14-39-16.28-77.53-33.77-113.66-55.89-18.9-11.56-37.12-24.4-51.4-41.67-7.73-9.35-14.48-19.56-13.86-33.09,10.49-.91,19.61,2.87,28.37,7.74,15.11,8.41,29.82,17.62,45.32,25.23,7.08,3.48,15.58,4.35,23.56,5.64,3.56.57,7.42-.77,12.6-1.43-2.18-2-3.14-2.94-4.22-3.75-47.48-35.92-90.4-76.71-130.06-121A504.32,504.32,0,0,1,1,17V10L8,1H33c24.22,24.3,48,49.12,72.83,72.74,17.84,16.94,36.17,33.59,57.61,46.16,4.78,2.8,9.86,5.09,14.8,7.62C141,87.84,107.63,45.51,77,1h73c9.78,13.46,20.4,26.14,34,36,.19.23.37.47.56.71.1-.12.32-.31.29-.36a6.32,6.32,0,0,0-.54-.71c-.69-1.67-1.28-3.38-2.08-5Q174.64,16.32,167,1Z" transform="translate(-1 -1)"/><path class="cls-2" d="M1303,1c-12.29,10.94-24,22.57-37,32.71q-84.74,66.42-191,84.88a421.85,421.85,0,0,1-111.48,4.65c-99.4-9.07-185.35-48-258.41-115.79C703,5.43,701.05,3.16,699,1Z" transform="translate(-1 -1)"/><path class="cls-3" d="M961,815c-9.35-2.34-8.72-10.21-9-17.11-.3-8.48.24-17,.41-25.48,0-1.1,0-2.2,0-4-1.94,1.15-3.34,1.91-4.67,2.78-11.28,7.38-22.61,14.71-33.82,22.19a92.8,92.8,0,0,1-35.85,14.38c-5.64,1-11.69-.36-18.27-.68,7.1-21.81,18.22-38.56,36.68-50.33,18.72-11.93,39.51-17,60.93-20.78,29.67-5.27,59.64-5.48,89.61-6,25.65-.44,51.3-.4,77-1,27-.65,53.93-3,79.89-11,18.29-5.65,34.95-14.53,47.84-29.34,2.21-2.54,2.49-4.56.74-7.47-2.21-3.68-3.88-7.69-6.25-12.5a45.06,45.06,0,0,0,24.61-9.12c8.76-6.53,11.6-12.9,9-23.51,9.89-1.29,19.66-3,29.5-3.78,28.51-2.18,57,0,85.32,2.44,35.65,3.05,71.22,7,106.85,10.4,14.22,1.35,28.48,2.15,42.67,3.19,3.66,24.67-13.16,47.63-36.29,52.85-19.88,4.49-38,.66-54.91-9.83-5-3.08-9-7.63-13-11.09-1.64,12.59-3.06,25.41-5,38.14-2,12.94-8.55,20.4-18.09,22.58-11.21,2.56-21.06-.22-30.12-6.75-4.32-3.12-8.49-6.45-12.83-9.55a27.88,27.88,0,0,0-6-3.42c-6.52-2.55-8.07-1.81-11.06,4.36-4.51,9.28-8.56,18.83-13.82,27.67a63.34,63.34,0,0,1-13.12,15.31c-5.77,5-15.5,2.8-19.75-3.67a48,48,0,0,1-5-10.24c-1.27-3.56-1.8-7.38-3-12.81-4.09,4.73-7.67,8.6-11,12.72-6.94,8.69-13.31,17.87-20.69,26.15-5.82,6.55-14.21,8.71-22.74,8.18-3-.18-6.46-2.53-8.73-4.85-6.26-6.42-12-13.33-17.41-19.43-7.9,9.29-15.32,18.44-23.25,27.12a41.27,41.27,0,0,1-10.79,7.94c-9.73,5.3-20.15,1.13-23.87-9.28-2.35-6.57-4.35-13.26-6.81-19.78-.7-1.85-2.48-3.28-3.77-4.9a26.54,26.54,0,0,0-3.55,3.82c-6.17,9.89-12,20-18.45,29.69a20.24,20.24,0,0,1-8.82,7.47c-7.55,2.87-15.4,5.71-23.78,3.78s-10-4.45-9.11-13a297.81,297.81,0,0,0,2-32.9c-3.45,2.21-7.39,3.92-10.25,6.73-5.69,5.59-10.53,12-16.2,17.67-7.4,7.36-15,14.59-23.06,21.2-3.14,2.57-7.77,3.32-11.72,4.89h-6c-4.92-1.55-6.67-4.93-6-9.92.65-4.77,1-9.59,1.68-14.35,1.4-9.08,2.8-18.1-3.14-26.3a3.38,3.38,0,0,0-.94.53c-.54.63-1,1.32-1.5,2C1000,786.06,985.73,805,963,815Z" transform="translate(-1 -1)"/><path class="cls-4" d="M597,1c-4.15,8.35-11.32,13.56-19.5,17-20,8.26-40,16.37-60.26,23.73-22.64,8.2-45.61,15.51-68.44,23.19-1.53.52-3.13.83-6.14,1.61,1.87-2.32,2.82-3.58,3.85-4.76q23.64-27.09,47.27-54.17c1.84-2.1,3.49-4.36,5.22-6.55Z" transform="translate(-1 -1)"/><path class="cls-4" d="M1560.16,65.84a11.8,11.8,0,0,1-3.38-.17c-41-14.57-82.1-29.06-123-43.89-10.07-3.65-19.43-8.84-26-17.78A26.6,26.6,0,0,1,1406,1h98q14.73,16.91,29.44,33.83c8.92,10.32,17.76,20.72,26.64,31.08Z" transform="translate(-1 -1)"/><path class="cls-5" d="M2001,12l-6-11h6Z" transform="translate(-1 -1)"/><path class="cls-6" d="M8,1,1,10V1Z" transform="translate(-1 -1)"/><path class="cls-7" d="M891,653.06l19.17,4.14-24.77,28.55c12.48,5.2,24.58,7.65,37.17,5.57,6-1,11.69-3.47,17.58-5.09a6.14,6.14,0,0,1,4.11.17c12.57,6.47,26.18,8.93,40,9.5,24.77,1,49.57,1.22,74.36,1.83,8.57.21,17.15.49,25.91,5.15a81,81,0,0,1-28.3,3.89c-34.1-1.33-68.19-3.12-102.31-3.65-29.3-.45-58.67-.38-87.91,1.26s-58.93,2.44-87.7,9.67c-7.17,1.8-14.12,4.44-21.56,6.83,1.3-4.51,2.68-9.23,4-13.93-12-.05-28.36,10.32-31.34,19.92-8.06-12.14-6.92-31,2.42-43,6.85-8.82,16.39-14,25.84-19.22a4.4,4.4,0,0,1,3.6.26c9.48,5.2,19.26,8,30.18,5.21,1.57-.41,3.8.67,5.38,1.63,10.78,6.56,23.71,4.18,30.91-6.22a20.89,20.89,0,0,0,3.11-8.74c.52-3.73.12-7.59.12-11.07l91.8-19.48.67,1.9C912.85,636.31,902.22,644.45,891,653.06Z" transform="translate(-1 -1)"/><path class="cls-4" d="M1000.9,364.69c-6.24-23.09-12.84-46.1-18.63-69.31q-8.07-32.42-14.59-65.2a63.28,63.28,0,0,1-.33-21.27c2.22-15.07,13.7-24.65,30-25.65a54.15,54.15,0,0,1,16.31,1.35c16.31,4.06,26.39,20.15,22.67,38.65-6.24,30.93-13.55,61.67-20.89,92.37-3.93,16.47-8.86,32.69-13.34,49Z" transform="translate(-1 -1)"/><path class="cls-4" d="M1258.07,313.69c-6.24-7.94-12.67-15.73-18.66-23.85q-31.12-42.19-61.93-84.65c-5.67-7.85-10-16.5-10.83-26.49-.67-7.63.61-14.84,5.63-20.62,10.4-12,23.55-17.89,39.52-15.1,11.17,2,18.29,9.8,22.09,19.8a145.13,145.13,0,0,1,7.84,29.29c5.8,38.16,11,76.41,16.36,114.62.3,2.14.59,4.27.89,6.41Z" transform="translate(-1 -1)"/><path class="cls-4" d="M743.75,314c3.67-27.45,6.84-54.2,10.92-80.82,3.2-20.86,7.22-41.61,11.45-62.29a37.56,37.56,0,0,1,14.61-23.18c6.33-4.66,13.57-6.79,21.22-5.11a72.13,72.13,0,0,1,18.24,6.28c14,7.44,19.55,20.64,15,35.86a63.61,63.61,0,0,1-9,19.29c-26.6,36.45-53.65,72.56-80.56,108.78A11.22,11.22,0,0,1,743.75,314Z" transform="translate(-1 -1)"/><path class="cls-4" d="M868.93,351.78c-1.93-44.22-4-88.44-5.67-132.67a79.54,79.54,0,0,1,1.87-19.81c4.39-20,19.64-29.73,39.82-25.94,23.48,4.41,34.44,20.78,28,43.76a234.76,234.76,0,0,1-14,36.19c-15.35,32.47-31.31,64.65-47,96.94a15.19,15.19,0,0,1-1.05,1.6Z" transform="translate(-1 -1)"/><path class="cls-4" d="M1374,251c-10.67-9-21.6-17.73-31.94-27.1-22.57-20.46-45-41.05-67.11-62a74.83,74.83,0,0,1-14.09-18.55c-7.8-14.47-4.46-28.85,8.24-39.31,9.57-7.88,20.15-13.43,33-9.89,11.57,3.18,19,11.59,23.77,22,5.69,12.38,11.16,24.91,15.72,37.72,10.92,30.69,21.24,61.59,31.77,92.41a33.1,33.1,0,0,1,.91,4.34Z" transform="translate(-1 -1)"/><path class="cls-4" d="M1132,352c-10.26-20.66-20.91-41.14-30.66-62.05-10.33-22.13-19.91-44.61-29.56-67.06a40.87,40.87,0,0,1-2.35-25.46c3-13.44,15.27-22.86,31.25-24.43,22-2.16,37.25,9.94,38.18,32.15.89,21.41.44,42.93-.39,64.36-.9,23.11-2.91,46.18-4.46,69.26-.29,4.32-.71,8.62-1.06,12.93Z" transform="translate(-1 -1)"/><path class="cls-1" d="M628.8,250.78c3.72-11.88,7-23.9,11.22-35.6,10.81-30.21,21.66-60.41,33.27-90.31a74.42,74.42,0,0,1,13.87-22.21c9-10,20.71-11.93,33.33-6.82a50.88,50.88,0,0,1,5,2.29c23,12.33,27.64,35,10.71,54.92a256.46,256.46,0,0,1-23.63,24.37c-26.57,24-53.47,47.66-80.26,71.42A28.11,28.11,0,0,1,629,251Z" transform="translate(-1 -1)"/><path class="cls-1" d="M526.2,167.83c8.38-14.72,16-28.94,24.4-42.7,16-26.29,32.37-52.39,48.81-78.42a42.6,42.6,0,0,1,18.64-16.17c7.49-3.41,15.18-3.84,22.78-.63A43.63,43.63,0,0,1,665,54c4.22,10.13,2.39,20-4.18,28.26-4.9,6.15-10.71,12.18-17.35,16.25-38.18,23.38-76.73,46.15-115.16,69.12A9.61,9.61,0,0,1,526.2,167.83Z" transform="translate(-1 -1)"/><path class="cls-4" d="M1476.3,169c-28.51-16.68-56.09-32.47-83.3-48.87-13.81-8.32-27.11-17.53-40.36-26.74a37.61,37.61,0,0,1-15.43-21.52c-3.82-14.67,3.2-25.52,13.43-34.8,13.36-12.11,29.07-12.6,42.9-1a60.47,60.47,0,0,1,12.85,14.48c23.34,38.38,46.31,77,69.37,115.55A15,15,0,0,1,1476.3,169Z" transform="translate(-1 -1)"/><path class="cls-1" d="M629,251l-.51.73c-.09-.12-.29-.32-.26-.36a5.31,5.31,0,0,1,.55-.62S629,251,629,251Z" transform="translate(-1 -1)"/><path class="cls-4" d="M1374.27,250.66l.25,1.07-.54-.7Z" transform="translate(-1 -1)"/><path class="cls-4" d="M1560.08,65.91l.07-.06Z" transform="translate(-1 -1)"/></svg>